# xmcd
#
# Track frame offsets:
#	150
#	13600
#	32597
#	48540
#	63127
#	78480
#	91230
#	106985
#	120592
#	142332
#	158607
#	172347
#	186265
#	207932
#
# Disc length: 2915 seconds
#
# Revision: 3
# Processed by: cddbd v1.5.2PL0 Copyright (c) Steve Scherf et al.
# Submitted via: EZCDAudioConverter 9.0.2.1
#
DISCID=bd0b610e
DTITLE=Merle Haggard - The Essential Merle Haggard - The Epic Years
DYEAR=2004
DGENRE=Country
TTITLE0=Big City
TTITLE1=Are The Good Times Really Over
TTITLE2=Someday When Things Are Good
TTITLE3=Yesterday's Wine
TTITLE4=Twinkle, Twinkle Lucky Star
TTITLE5=Let's Chase Each Other Around The Room
TTITLE6=I Always Get Lucky With You
TTITLE7=That's The Way Love Goes
TTITLE8=Going Where The Lonely Go
TTITLE9=A Place To Fall Apart
TTITLE10=I Had A Beautiful Time
TTITLE11=My Favorite Memory
TTITLE12=Pancho And Lefty
TTITLE13=The Okie From Muskogee's Comin' Home
EXTD=
EXTT0=
EXTT1=
EXTT2=
EXTT3=
EXTT4=
EXTT5=
EXTT6=
EXTT7=
EXTT8=
EXTT9=
EXTT10=
EXTT11=
EXTT12=
EXTT13=
PLAYORDER=
